<svg xmlns="http://www.w3.org/2000/svg" width="480" height="814" class="">
    <defs>
        <style/>
    </defs>
    <style>@keyframes animation-gauge{0%{stroke-dasharray:0 329}}@keyframes animation-rainbow{0%,to{color:#7f00ff;fill:#7f00ff}14%{color:#a933ff;fill:#a933ff}29%{color:#007fff;fill:#007fff}43%{color:#00ff7f;fill:#00ff7f}57%{color:#ff0;fill:#ff0}71%{color:#ff7f00;fill:#ff7f00}86%{color:red;fill:red}}svg{font-family:-apple-system,BlinkMacSystemFont,Segoe UI,Helvetica,Arial,sans-serif,Apple Color Emoji,Segoe UI Emoji;color:#777}h2,h3{margin:8px 0 2px;padding:0;color:#0366d6;font-weight:400}h2 svg,h3 svg{fill:currentColor}h2{font-size:16px}h3,svg{font-size:14px}section&gt;.field{margin-left:5px;margin-right:5px}.field{display:flex;align-items:center;margin-bottom:2px;white-space:nowrap}.field svg{margin:0 8px;fill:#959da5;flex-shrink:0}.row{display:flex;flex-wrap:wrap}.row section{flex:1 1 0}.column{display:flex;flex-direction:column;align-items:center}.margin-bottom{margin-bottom:16px}.chart{padding:0 8px}:root{--color-calendar-graph-day-bg:#ebedf0;--color-calendar-graph-day-border:rgba(27,31,35,0.06);--color-calendar-graph-day-L1-bg:#9be9a8;--color-calendar-graph-day-L2-bg:#40c463;--color-calendar-graph-day-L3-bg:#30a14e;--color-calendar-graph-day-L4-bg:#216e39;--color-calendar-halloween-graph-day-L1-bg:#ffee4a;--color-calendar-halloween-graph-day-L2-bg:#ffc501;--color-calendar-halloween-graph-day-L3-bg:#fe9600;--color-calendar-halloween-graph-day-L4-bg:#03001c;--color-calendar-winter-graph-day-L1-bg:#0a3069;--color-calendar-winter-graph-day-L2-bg:#0969da;--color-calendar-winter-graph-day-L3-bg:#54aeff;--color-calendar-winter-graph-day-L4-bg:#b6e3ff;--color-calendar-graph-day-L4-border:rgba(27,31,35,0.06);--color-calendar-graph-day-L3-border:rgba(27,31,35,0.06);--color-calendar-graph-day-L2-border:rgba(27,31,35,0.06);--color-calendar-graph-day-L1-border:rgba(27,31,35,0.06)}#metrics-end{width:100%}</style>
    <style/>
    <foreignObject x="0" y="0" width="100%" height="100%">
        <div xmlns="http://www.w3.org/1999/xhtml" xmlns:xlink="http://www.w3.org/1999/xlink" class="items-wrapper">
            <section class="stargazers">
                <h2 class="field">
                    <svg xmlns="http://www.w3.org/2000/svg" viewBox="0 0 16 16" width="16" height="16">
                        <path fill-rule="evenodd" d="M8 .25a.75.75 0 01.673.418l1.882 3.815 4.21.612a.75.75 0 01.416 1.279l-3.046 2.97.719 4.192a.75.75 0 01-1.088.791L8 12.347l-3.766 1.98a.75.75 0 01-1.088-.79l.72-4.194L.818 6.374a.75.75 0 01.416-1.28l4.21-.611L7.327.668A.75.75 0 018 .25zm0 2.445L6.615 5.5a.75.75 0 01-.564.41l-3.097.45 2.24 2.184a.75.75 0 01.216.664l-.528 3.084 2.769-1.456a.75.75 0 01.698 0l2.77 1.456-.53-3.084a.75.75 0 01.216-.664l2.24-2.183-3.096-.45a.75.75 0 01-.564-.41L8 2.694v.001z"/>
                    </svg>
                    Stargazers
                </h2>
                <div class="row margin-bottom">
                    <section class="column chart">
                        <h3>Total stargazers</h3>
                        <svg xmlns="http://www.w3.org/2000/svg" width="480" height="315">
                            <g transform="translate(10,270)" fill="none" font-size="10" font-family="sans-serif" text-anchor="middle">
                                <path class="domain" stroke="rgba(127, 127, 127, .8)" d="M10.5,0.5H460.5"/>
                                <g class="tick" opacity="1" transform="translate(37.90384615384615,0)">
                                    <line stroke="currentColor" y2="6" stroke-opacity="0.5"/>
                                    <text fill="rgba(127, 127, 127, .8)" y="9" dy="0.71em" transform="translate(-5,5) rotate(-45)" style="text-anchor: end;">Tue 08</text>
                                </g>
                                <g class="tick" opacity="1" transform="translate(72.51923076923077,0)">
                                    <line stroke="currentColor" y2="6" stroke-opacity="0.5"/>
                                    <text fill="rgba(127, 127, 127, .8)" y="9" dy="0.71em" transform="translate(-5,5) rotate(-45)" style="text-anchor: end;">Wed 09</text>
                                </g>
                                <g class="tick" opacity="1" transform="translate(107.13461538461537,0)">
                                    <line stroke="currentColor" y2="6" stroke-opacity="0.5"/>
                                    <text fill="rgba(127, 127, 127, .8)" y="9" dy="0.71em" transform="translate(-5,5) rotate(-45)" style="text-anchor: end;">Thu 10</text>
                                </g>
                                <g class="tick" opacity="1" transform="translate(141.75000000000003,0)">
                                    <line stroke="currentColor" y2="6" stroke-opacity="0.5"/>
                                    <text fill="rgba(127, 127, 127, .8)" y="9" dy="0.71em" transform="translate(-5,5) rotate(-45)" style="text-anchor: end;">Fri 11</text>
                                </g>
                                <g class="tick" opacity="1" transform="translate(176.36538461538464,0)">
                                    <line stroke="currentColor" y2="6" stroke-opacity="0.5"/>
                                    <text fill="rgba(127, 127, 127, .8)" y="9" dy="0.71em" transform="translate(-5,5) rotate(-45)" style="text-anchor: end;">Sat 12</text>
                                </g>
                                <g class="tick" opacity="1" transform="translate(210.98076923076925,0)">
                                    <line stroke="currentColor" y2="6" stroke-opacity="0.5"/>
                                    <text fill="rgba(127, 127, 127, .8)" y="9" dy="0.71em" transform="translate(-5,5) rotate(-45)" style="text-anchor: end;">Sep 13</text>
                                </g>
                                <g class="tick" opacity="1" transform="translate(245.59615384615387,0)">
                                    <line stroke="currentColor" y2="6" stroke-opacity="0.5"/>
                                    <text fill="rgba(127, 127, 127, .8)" y="9" dy="0.71em" transform="translate(-5,5) rotate(-45)" style="text-anchor: end;">Mon 14</text>
                                </g>
                                <g class="tick" opacity="1" transform="translate(280.21153846153845,0)">
                                    <line stroke="currentColor" y2="6" stroke-opacity="0.5"/>
                                    <text fill="rgba(127, 127, 127, .8)" y="9" dy="0.71em" transform="translate(-5,5) rotate(-45)" style="text-anchor: end;">Tue 15</text>
                                </g>
                                <g class="tick" opacity="1" transform="translate(314.8269230769231,0)">
                                    <line stroke="currentColor" y2="6" stroke-opacity="0.5"/>
                                    <text fill="rgba(127, 127, 127, .8)" y="9" dy="0.71em" transform="translate(-5,5) rotate(-45)" style="text-anchor: end;">Wed 16</text>
                                </g>
                                <g class="tick" opacity="1" transform="translate(349.4423076923077,0)">
                                    <line stroke="currentColor" y2="6" stroke-opacity="0.5"/>
                                    <text fill="rgba(127, 127, 127, .8)" y="9" dy="0.71em" transform="translate(-5,5) rotate(-45)" style="text-anchor: end;">Thu 17</text>
                                </g>
                                <g class="tick" opacity="1" transform="translate(384.0576923076923,0)">
                                    <line stroke="currentColor" y2="6" stroke-opacity="0.5"/>
                                    <text fill="rgba(127, 127, 127, .8)" y="9" dy="0.71em" transform="translate(-5,5) rotate(-45)" style="text-anchor: end;">Fri 18</text>
                                </g>
                                <g class="tick" opacity="1" transform="translate(418.6730769230769,0)">
                                    <line stroke="currentColor" y2="6" stroke-opacity="0.5"/>
                                    <text fill="rgba(127, 127, 127, .8)" y="9" dy="0.71em" transform="translate(-5,5) rotate(-45)" style="text-anchor: end;">Sat 19</text>
                                </g>
                                <g class="tick" opacity="1" transform="translate(453.2884615384615,0)">
                                    <line stroke="currentColor" y2="6" stroke-opacity="0.5"/>
                                    <text fill="rgba(127, 127, 127, .8)" y="9" dy="0.71em" transform="translate(-5,5) rotate(-45)" style="text-anchor: end;">Sep 20</text>
                                </g>
                            </g>
                            <g transform="translate(10,10)" fill="none" font-size="10" font-family="sans-serif" text-anchor="start">
                                <g class="tick" opacity="1" transform="translate(0,34.08490566037735)">
                                    <line stroke="currentColor" x2="460" stroke-opacity="0.5" stroke-dasharray="2,2"/>
                                    <text fill="rgba(127, 127, 127, .8)" x="0" dy="-4">1,980</text>
                                </g>
                                <g class="tick" opacity="1" transform="translate(0,81.25471698113209)">
                                    <line stroke="currentColor" x2="460" stroke-opacity="0.5" stroke-dasharray="2,2"/>
                                    <text fill="rgba(127, 127, 127, .8)" x="0" dy="-4">1,960</text>
                                </g>
                                <g class="tick" opacity="1" transform="translate(0,128.4245283018868)">
                                    <line stroke="currentColor" x2="460" stroke-opacity="0.5" stroke-dasharray="2,2"/>
                                    <text fill="rgba(127, 127, 127, .8)" x="0" dy="-4">1,940</text>
                                </g>
                                <g class="tick" opacity="1" transform="translate(0,175.5943396226415)">
                                    <line stroke="currentColor" x2="460" stroke-opacity="0.5" stroke-dasharray="2,2"/>
                                    <text fill="rgba(127, 127, 127, .8)" x="0" dy="-4">1,920</text>
                                </g>
                                <g class="tick" opacity="1" transform="translate(0,222.76415094339623)">
                                    <line stroke="currentColor" x2="460" stroke-opacity="0.5" stroke-dasharray="2,2"/>
                                    <text fill="rgba(127, 127, 127, .8)" x="0" dy="-4">1,900</text>
                                </g>
                            </g>
                            <path transform="translate(10,10)" d="M10,260L44.615,238.774L79.231,226.981L113.846,172.736L148.462,151.509L183.077,130.283L217.692,118.491L252.308,90.189L286.923,71.321L321.538,64.245L356.154,50.094L390.769,28.868L425.385,12.358L460,10" fill="transparent" stroke="#87ceeb" stroke-width="2"/>
                            <path transform="translate(10,10)" d="M10,260L44.615,260L79.231,260L113.846,260L148.462,260L183.077,260L217.692,260L252.308,260L286.923,260L321.538,260L356.154,260L390.769,260L425.385,260L460,260L460,10L425.385,12.358L390.769,28.868L356.154,50.094L321.538,64.245L286.923,71.321L252.308,90.189L217.692,118.491L183.077,130.283L148.462,151.509L113.846,172.736L79.231,226.981L44.615,238.774L10,260Z" fill="rgba(88, 166, 255, .1)"/>
                            <g>
                                <circle transform="translate(10,10)" cx="10" cy="260" r="2" fill="#106cbc"/>
                                <circle transform="translate(10,10)" cx="44.61538461538462" cy="238.77358490566039" r="2" fill="#106cbc"/>
                                <circle transform="translate(10,10)" cx="79.23076923076924" cy="226.9811320754717" r="2" fill="#106cbc"/>
                                <circle transform="translate(10,10)" cx="113.84615384615385" cy="172.73584905660377" r="2" fill="#106cbc"/>
                                <circle transform="translate(10,10)" cx="148.46153846153848" cy="151.50943396226415" r="2" fill="#106cbc"/>
                                <circle transform="translate(10,10)" cx="183.0769230769231" cy="130.28301886792454" r="2" fill="#106cbc"/>
                                <circle transform="translate(10,10)" cx="217.6923076923077" cy="118.49056603773585" r="2" fill="#106cbc"/>
                                <circle transform="translate(10,10)" cx="252.3076923076923" cy="90.18867924528303" r="2" fill="#106cbc"/>
                                <circle transform="translate(10,10)" cx="286.92307692307696" cy="71.32075471698111" r="2" fill="#106cbc"/>
                                <circle transform="translate(10,10)" cx="321.53846153846155" cy="64.24528301886791" r="2" fill="#106cbc"/>
                                <circle transform="translate(10,10)" cx="356.1538461538462" cy="50.0943396226415" r="2" fill="#106cbc"/>
                                <circle transform="translate(10,10)" cx="390.7692307692308" cy="28.867924528301884" r="2" fill="#106cbc"/>
                                <circle transform="translate(10,10)" cx="425.3846153846154" cy="12.358490566037736" r="2" fill="#106cbc"/>
                            </g>
                            <g fill="currentColor" text-anchor="middle" font-family="sans-serif" font-size="10" stroke="rgba(88, 166, 255, .05)" stroke-linejoin="round" stroke-width="4" paint-order="stroke fill">
                                <text transform="translate(10,6)" x="10" y="260" fill="rgba(127, 127, 127, .8)">1.88k</text>
                                <text transform="translate(10,6)" x="44.61538461538462" y="238.77358490566039" fill="rgba(127, 127, 127, .8)">1.89k</text>
                                <text transform="translate(10,6)" x="79.23076923076924" y="226.9811320754717" fill="rgba(127, 127, 127, .8)">1.90k</text>
                                <text transform="translate(10,6)" x="113.84615384615385" y="172.73584905660377" fill="rgba(127, 127, 127, .8)">1.92k</text>
                                <text transform="translate(10,6)" x="148.46153846153848" y="151.50943396226415" fill="rgba(127, 127, 127, .8)">1.93k</text>
                                <text transform="translate(10,6)" x="183.0769230769231" y="130.28301886792454" fill="rgba(127, 127, 127, .8)">1.94k</text>
                                <text transform="translate(10,6)" x="217.6923076923077" y="118.49056603773585" fill="rgba(127, 127, 127, .8)">1.94k</text>
                                <text transform="translate(10,6)" x="252.3076923076923" y="90.18867924528303" fill="rgba(127, 127, 127, .8)">1.96k</text>
                                <text transform="translate(10,6)" x="286.92307692307696" y="71.32075471698111" fill="rgba(127, 127, 127, .8)">1.96k</text>
                                <text transform="translate(10,6)" x="321.53846153846155" y="64.24528301886791" fill="rgba(127, 127, 127, .8)">1.97k</text>
                                <text transform="translate(10,6)" x="356.1538461538462" y="50.0943396226415" fill="rgba(127, 127, 127, .8)">1.97k</text>
                                <text transform="translate(10,6)" x="390.7692307692308" y="28.867924528301884" fill="rgba(127, 127, 127, .8)">1.98k</text>
                                <text transform="translate(10,6)" x="425.3846153846154" y="12.358490566037736" fill="rgba(127, 127, 127, .8)">1.99k</text>
                            </g>
                        </svg>
                    </section>
                    <section class="column chart">
                        <h3>New stargazers per day</h3>
                        <svg xmlns="http://www.w3.org/2000/svg" width="480" height="315">
                            <g transform="translate(10,270)" fill="none" font-size="10" font-family="sans-serif" text-anchor="middle">
                                <path class="domain" stroke="rgba(127, 127, 127, .8)" d="M10.5,0.5H460.5"/>
                                <g class="tick" opacity="1" transform="translate(37.90384615384615,0)">
                                    <line stroke="currentColor" y2="6" stroke-opacity="0.5"/>
                                    <text fill="rgba(127, 127, 127, .8)" y="9" dy="0.71em" transform="translate(-5,5) rotate(-45)" style="text-anchor: end;">Tue 08</text>
                                </g>
                                <g class="tick" opacity="1" transform="translate(72.51923076923077,0)">
                                    <line stroke="currentColor" y2="6" stroke-opacity="0.5"/>
                                    <text fill="rgba(127, 127, 127, .8)" y="9" dy="0.71em" transform="translate(-5,5) rotate(-45)" style="text-anchor: end;">Wed 09</text>
                                </g>
                                <g class="tick" opacity="1" transform="translate(107.13461538461537,0)">
                                    <line stroke="currentColor" y2="6" stroke-opacity="0.5"/>
                                    <text fill="rgba(127, 127, 127, .8)" y="9" dy="0.71em" transform="translate(-5,5) rotate(-45)" style="text-anchor: end;">Thu 10</text>
                                </g>
                                <g class="tick" opacity="1" transform="translate(141.75000000000003,0)">
                                    <line stroke="currentColor" y2="6" stroke-opacity="0.5"/>
                                    <text fill="rgba(127, 127, 127, .8)" y="9" dy="0.71em" transform="translate(-5,5) rotate(-45)" style="text-anchor: end;">Fri 11</text>
                                </g>
                                <g class="tick" opacity="1" transform="translate(176.36538461538464,0)">
                                    <line stroke="currentColor" y2="6" stroke-opacity="0.5"/>
                                    <text fill="rgba(127, 127, 127, .8)" y="9" dy="0.71em" transform="translate(-5,5) rotate(-45)" style="text-anchor: end;">Sat 12</text>
                                </g>
                                <g class="tick" opacity="1" transform="translate(210.98076923076925,0)">
                                    <line stroke="currentColor" y2="6" stroke-opacity="0.5"/>
                                    <text fill="rgba(127, 127, 127, .8)" y="9" dy="0.71em" transform="translate(-5,5) rotate(-45)" style="text-anchor: end;">Sep 13</text>
                                </g>
                                <g class="tick" opacity="1" transform="translate(245.59615384615387,0)">
                                    <line stroke="currentColor" y2="6" stroke-opacity="0.5"/>
                                    <text fill="rgba(127, 127, 127, .8)" y="9" dy="0.71em" transform="translate(-5,5) rotate(-45)" style="text-anchor: end;">Mon 14</text>
                                </g>
                                <g class="tick" opacity="1" transform="translate(280.21153846153845,0)">
                                    <line stroke="currentColor" y2="6" stroke-opacity="0.5"/>
                                    <text fill="rgba(127, 127, 127, .8)" y="9" dy="0.71em" transform="translate(-5,5) rotate(-45)" style="text-anchor: end;">Tue 15</text>
                                </g>
                                <g class="tick" opacity="1" transform="translate(314.8269230769231,0)">
                                    <line stroke="currentColor" y2="6" stroke-opacity="0.5"/>
                                    <text fill="rgba(127, 127, 127, .8)" y="9" dy="0.71em" transform="translate(-5,5) rotate(-45)" style="text-anchor: end;">Wed 16</text>
                                </g>
                                <g class="tick" opacity="1" transform="translate(349.4423076923077,0)">
                                    <line stroke="currentColor" y2="6" stroke-opacity="0.5"/>
                                    <text fill="rgba(127, 127, 127, .8)" y="9" dy="0.71em" transform="translate(-5,5) rotate(-45)" style="text-anchor: end;">Thu 17</text>
                                </g>
                                <g class="tick" opacity="1" transform="translate(384.0576923076923,0)">
                                    <line stroke="currentColor" y2="6" stroke-opacity="0.5"/>
                                    <text fill="rgba(127, 127, 127, .8)" y="9" dy="0.71em" transform="translate(-5,5) rotate(-45)" style="text-anchor: end;">Fri 18</text>
                                </g>
                                <g class="tick" opacity="1" transform="translate(418.6730769230769,0)">
                                    <line stroke="currentColor" y2="6" stroke-opacity="0.5"/>
                                    <text fill="rgba(127, 127, 127, .8)" y="9" dy="0.71em" transform="translate(-5,5) rotate(-45)" style="text-anchor: end;">Sat 19</text>
                                </g>
                                <g class="tick" opacity="1" transform="translate(453.2884615384615,0)">
                                    <line stroke="currentColor" y2="6" stroke-opacity="0.5"/>
                                    <text fill="rgba(127, 127, 127, .8)" y="9" dy="0.71em" transform="translate(-5,5) rotate(-45)" style="text-anchor: end;">Sep 20</text>
                                </g>
                            </g>
                            <g transform="translate(10,10)" fill="none" font-size="10" font-family="sans-serif" text-anchor="start">
                                <g class="tick" opacity="1" transform="translate(0,43.10869565217392)">
                                    <line stroke="currentColor" x2="460" stroke-opacity="0.5" stroke-dasharray="2,2"/>
                                    <text fill="rgba(127, 127, 127, .8)" x="0" dy="-4">20</text>
                                </g>
                                <g class="tick" opacity="1" transform="translate(0,97.45652173913044)">
                                    <line stroke="currentColor" x2="460" stroke-opacity="0.5" stroke-dasharray="2,2"/>
                                    <text fill="rgba(127, 127, 127, .8)" x="0" dy="-4">15</text>
                                </g>
                                <g class="tick" opacity="1" transform="translate(0,151.804347826087)">
                                    <line stroke="currentColor" x2="460" stroke-opacity="0.5" stroke-dasharray="2,2"/>
                                    <text fill="rgba(127, 127, 127, .8)" x="0" dy="-4">10</text>
                                </g>
                                <g class="tick" opacity="1" transform="translate(0,206.15217391304347)">
                                    <line stroke="currentColor" x2="460" stroke-opacity="0.5" stroke-dasharray="2,2"/>
                                    <text fill="rgba(127, 127, 127, .8)" x="0" dy="-4">5</text>
                                </g>
                                <g class="tick" opacity="1" transform="translate(0,260.5)">
                                    <line stroke="currentColor" x2="460" stroke-opacity="0.5" stroke-dasharray="2,2"/>
                                    <text fill="rgba(127, 127, 127, .8)" x="0" dy="-4">0</text>
                                </g>
                            </g>
                            <path transform="translate(10,10)" d="M10,238.261L44.615,162.174L79.231,205.652L113.846,10L148.462,162.174L183.077,162.174L217.692,205.652L252.308,129.565L286.923,173.043L321.538,227.391L356.154,194.783L390.769,162.174L425.385,183.913L460,249.13" fill="transparent" stroke="#87ceeb" stroke-width="2"/>
                            <path transform="translate(10,10)" d="M10,260L44.615,260L79.231,260L113.846,260L148.462,260L183.077,260L217.692,260L252.308,260L286.923,260L321.538,260L356.154,260L390.769,260L425.385,260L460,260L460,249.13L425.385,183.913L390.769,162.174L356.154,194.783L321.538,227.391L286.923,173.043L252.308,129.565L217.692,205.652L183.077,162.174L148.462,162.174L113.846,10L79.231,205.652L44.615,162.174L10,238.261Z" fill="rgba(88, 166, 255, .1)"/>
                            <g>
                                <circle transform="translate(10,10)" cx="10" cy="238.2608695652174" r="2" fill="#106cbc"/>
                                <circle transform="translate(10,10)" cx="44.61538461538462" cy="162.17391304347828" r="2" fill="#106cbc"/>
                                <circle transform="translate(10,10)" cx="79.23076923076924" cy="205.65217391304347" r="2" fill="#106cbc"/>
                                <circle transform="translate(10,10)" cx="113.84615384615385" cy="10" r="2" fill="#106cbc"/>
                                <circle transform="translate(10,10)" cx="148.46153846153848" cy="162.17391304347828" r="2" fill="#106cbc"/>
                                <circle transform="translate(10,10)" cx="183.0769230769231" cy="162.17391304347828" r="2" fill="#106cbc"/>
                                <circle transform="translate(10,10)" cx="217.6923076923077" cy="205.65217391304347" r="2" fill="#106cbc"/>
                                <circle transform="translate(10,10)" cx="252.3076923076923" cy="129.56521739130434" r="2" fill="#106cbc"/>
                                <circle transform="translate(10,10)" cx="286.92307692307696" cy="173.04347826086956" r="2" fill="#106cbc"/>
                                <circle transform="translate(10,10)" cx="321.53846153846155" cy="227.3913043478261" r="2" fill="#106cbc"/>
                                <circle transform="translate(10,10)" cx="356.1538461538462" cy="194.78260869565216" r="2" fill="#106cbc"/>
                                <circle transform="translate(10,10)" cx="390.7692307692308" cy="162.17391304347828" r="2" fill="#106cbc"/>
                                <circle transform="translate(10,10)" cx="425.3846153846154" cy="183.91304347826087" r="2" fill="#106cbc"/>
                            </g>
                            <g fill="currentColor" text-anchor="middle" font-family="sans-serif" font-size="10" stroke="rgba(88, 166, 255, .05)" stroke-linejoin="round" stroke-width="4" paint-order="stroke fill">
                                <text transform="translate(10,6)" x="10" y="238.2608695652174" fill="rgba(127, 127, 127, .8)">+2</text>
                                <text transform="translate(10,6)" x="44.61538461538462" y="162.17391304347828" fill="rgba(127, 127, 127, .8)">+9</text>
                                <text transform="translate(10,6)" x="79.23076923076924" y="205.65217391304347" fill="rgba(127, 127, 127, .8)">+5</text>
                                <text transform="translate(10,6)" x="113.84615384615385" y="10" fill="rgba(127, 127, 127, .8)">+23</text>
                                <text transform="translate(10,6)" x="148.46153846153848" y="162.17391304347828" fill="rgba(127, 127, 127, .8)">+9</text>
                                <text transform="translate(10,6)" x="183.0769230769231" y="162.17391304347828" fill="rgba(127, 127, 127, .8)">+9</text>
                                <text transform="translate(10,6)" x="217.6923076923077" y="205.65217391304347" fill="rgba(127, 127, 127, .8)">+5</text>
                                <text transform="translate(10,6)" x="252.3076923076923" y="129.56521739130434" fill="rgba(127, 127, 127, .8)">+12</text>
                                <text transform="translate(10,6)" x="286.92307692307696" y="173.04347826086956" fill="rgba(127, 127, 127, .8)">+8</text>
                                <text transform="translate(10,6)" x="321.53846153846155" y="227.3913043478261" fill="rgba(127, 127, 127, .8)">+3</text>
                                <text transform="translate(10,6)" x="356.1538461538462" y="194.78260869565216" fill="rgba(127, 127, 127, .8)">+6</text>
                                <text transform="translate(10,6)" x="390.7692307692308" y="162.17391304347828" fill="rgba(127, 127, 127, .8)">+9</text>
                                <text transform="translate(10,6)" x="425.3846153846154" y="183.91304347826087" fill="rgba(127, 127, 127, .8)">+7</text>
                            </g>
                        </svg>
                    </section>
                </div>
            </section>
        </div>
        <div xmlns="http://www.w3.org/1999/xhtml" id="metrics-end"></div>
    </foreignObject>
</svg>