<svg xmlns="http://www.w3.org/2000/svg" width="480" height="814" class="">
    <defs>
        <style/>
    </defs>
    <style>@keyframes animation-gauge{0%{stroke-dasharray:0 329}}@keyframes animation-rainbow{0%,to{color:#7f00ff;fill:#7f00ff}14%{color:#a933ff;fill:#a933ff}29%{color:#007fff;fill:#007fff}43%{color:#00ff7f;fill:#00ff7f}57%{color:#ff0;fill:#ff0}71%{color:#ff7f00;fill:#ff7f00}86%{color:red;fill:red}}svg{font-family:-apple-system,BlinkMacSystemFont,Segoe UI,Helvetica,Arial,sans-serif,Apple Color Emoji,Segoe UI Emoji;color:#777}h2,h3{margin:8px 0 2px;padding:0;color:#0366d6;font-weight:400}h2 svg,h3 svg{fill:currentColor}h2{font-size:16px}h3,svg{font-size:14px}section&gt;.field{margin-left:5px;margin-right:5px}.field{display:flex;align-items:center;margin-bottom:2px;white-space:nowrap}.field svg{margin:0 8px;fill:#959da5;flex-shrink:0}.row{display:flex;flex-wrap:wrap}.row section{flex:1 1 0}.column{display:flex;flex-direction:column;align-items:center}.margin-bottom{margin-bottom:16px}.chart{padding:0 8px}:root{--color-calendar-graph-day-bg:#ebedf0;--color-calendar-graph-day-border:rgba(27,31,35,0.06);--color-calendar-graph-day-L1-bg:#9be9a8;--color-calendar-graph-day-L2-bg:#40c463;--color-calendar-graph-day-L3-bg:#30a14e;--color-calendar-graph-day-L4-bg:#216e39;--color-calendar-halloween-graph-day-L1-bg:#ffee4a;--color-calendar-halloween-graph-day-L2-bg:#ffc501;--color-calendar-halloween-graph-day-L3-bg:#fe9600;--color-calendar-halloween-graph-day-L4-bg:#03001c;--color-calendar-winter-graph-day-L1-bg:#0a3069;--color-calendar-winter-graph-day-L2-bg:#0969da;--color-calendar-winter-graph-day-L3-bg:#54aeff;--color-calendar-winter-graph-day-L4-bg:#b6e3ff;--color-calendar-graph-day-L4-border:rgba(27,31,35,0.06);--color-calendar-graph-day-L3-border:rgba(27,31,35,0.06);--color-calendar-graph-day-L2-border:rgba(27,31,35,0.06);--color-calendar-graph-day-L1-border:rgba(27,31,35,0.06)}#metrics-end{width:100%}</style>
    <style/>
    <foreignObject x="0" y="0" width="100%" height="100%">
        <div xmlns="http://www.w3.org/1999/xhtml" xmlns:xlink="http://www.w3.org/1999/xlink" class="items-wrapper">
            <section class="stargazers">
                <h2 class="field">
                    <svg xmlns="http://www.w3.org/2000/svg" viewBox="0 0 16 16" width="16" height="16">
                        <path fill-rule="evenodd" d="M8 .25a.75.75 0 01.673.418l1.882 3.815 4.21.612a.75.75 0 01.416 1.279l-3.046 2.97.719 4.192a.75.75 0 01-1.088.791L8 12.347l-3.766 1.98a.75.75 0 01-1.088-.79l.72-4.194L.818 6.374a.75.75 0 01.416-1.28l4.21-.611L7.327.668A.75.75 0 018 .25zm0 2.445L6.615 5.5a.75.75 0 01-.564.41l-3.097.45 2.24 2.184a.75.75 0 01.216.664l-.528 3.084 2.769-1.456a.75.75 0 01.698 0l2.77 1.456-.53-3.084a.75.75 0 01.216-.664l2.24-2.183-3.096-.45a.75.75 0 01-.564-.41L8 2.694v.001z"/>
                    </svg>
                    Stargazers
                </h2>
                <div class="row margin-bottom">
                    <section class="column chart">
                        <h3>Total stargazers</h3>
                        <svg xmlns="http://www.w3.org/2000/svg" width="480" height="315">
                            <g transform="translate(10,270)" fill="none" font-size="10" font-family="sans-serif" text-anchor="middle">
                                <path class="domain" stroke="rgba(127, 127, 127, .8)" d="M10.5,0.5H460.5"/>
                                <g class="tick" opacity="1" transform="translate(37.90384615384615,0)">
                                    <line stroke="currentColor" y2="6" stroke-opacity="0.5"/>
                                    <text fill="rgba(127, 127, 127, .8)" y="9" dy="0.71em" transform="translate(-5,5) rotate(-45)" style="text-anchor: end;">Fri 11</text>
                                </g>
                                <g class="tick" opacity="1" transform="translate(72.51923076923077,0)">
                                    <line stroke="currentColor" y2="6" stroke-opacity="0.5"/>
                                    <text fill="rgba(127, 127, 127, .8)" y="9" dy="0.71em" transform="translate(-5,5) rotate(-45)" style="text-anchor: end;">Sat 12</text>
                                </g>
                                <g class="tick" opacity="1" transform="translate(107.13461538461537,0)">
                                    <line stroke="currentColor" y2="6" stroke-opacity="0.5"/>
                                    <text fill="rgba(127, 127, 127, .8)" y="9" dy="0.71em" transform="translate(-5,5) rotate(-45)" style="text-anchor: end;">Sep 13</text>
                                </g>
                                <g class="tick" opacity="1" transform="translate(141.75000000000003,0)">
                                    <line stroke="currentColor" y2="6" stroke-opacity="0.5"/>
                                    <text fill="rgba(127, 127, 127, .8)" y="9" dy="0.71em" transform="translate(-5,5) rotate(-45)" style="text-anchor: end;">Mon 14</text>
                                </g>
                                <g class="tick" opacity="1" transform="translate(176.36538461538464,0)">
                                    <line stroke="currentColor" y2="6" stroke-opacity="0.5"/>
                                    <text fill="rgba(127, 127, 127, .8)" y="9" dy="0.71em" transform="translate(-5,5) rotate(-45)" style="text-anchor: end;">Tue 15</text>
                                </g>
                                <g class="tick" opacity="1" transform="translate(210.98076923076925,0)">
                                    <line stroke="currentColor" y2="6" stroke-opacity="0.5"/>
                                    <text fill="rgba(127, 127, 127, .8)" y="9" dy="0.71em" transform="translate(-5,5) rotate(-45)" style="text-anchor: end;">Wed 16</text>
                                </g>
                                <g class="tick" opacity="1" transform="translate(245.59615384615387,0)">
                                    <line stroke="currentColor" y2="6" stroke-opacity="0.5"/>
                                    <text fill="rgba(127, 127, 127, .8)" y="9" dy="0.71em" transform="translate(-5,5) rotate(-45)" style="text-anchor: end;">Thu 17</text>
                                </g>
                                <g class="tick" opacity="1" transform="translate(280.21153846153845,0)">
                                    <line stroke="currentColor" y2="6" stroke-opacity="0.5"/>
                                    <text fill="rgba(127, 127, 127, .8)" y="9" dy="0.71em" transform="translate(-5,5) rotate(-45)" style="text-anchor: end;">Fri 18</text>
                                </g>
                                <g class="tick" opacity="1" transform="translate(314.8269230769231,0)">
                                    <line stroke="currentColor" y2="6" stroke-opacity="0.5"/>
                                    <text fill="rgba(127, 127, 127, .8)" y="9" dy="0.71em" transform="translate(-5,5) rotate(-45)" style="text-anchor: end;">Sat 19</text>
                                </g>
                                <g class="tick" opacity="1" transform="translate(349.4423076923077,0)">
                                    <line stroke="currentColor" y2="6" stroke-opacity="0.5"/>
                                    <text fill="rgba(127, 127, 127, .8)" y="9" dy="0.71em" transform="translate(-5,5) rotate(-45)" style="text-anchor: end;">Sep 20</text>
                                </g>
                                <g class="tick" opacity="1" transform="translate(384.0576923076923,0)">
                                    <line stroke="currentColor" y2="6" stroke-opacity="0.5"/>
                                    <text fill="rgba(127, 127, 127, .8)" y="9" dy="0.71em" transform="translate(-5,5) rotate(-45)" style="text-anchor: end;">Mon 21</text>
                                </g>
                                <g class="tick" opacity="1" transform="translate(418.6730769230769,0)">
                                    <line stroke="currentColor" y2="6" stroke-opacity="0.5"/>
                                    <text fill="rgba(127, 127, 127, .8)" y="9" dy="0.71em" transform="translate(-5,5) rotate(-45)" style="text-anchor: end;">Tue 22</text>
                                </g>
                                <g class="tick" opacity="1" transform="translate(453.2884615384615,0)">
                                    <line stroke="currentColor" y2="6" stroke-opacity="0.5"/>
                                    <text fill="rgba(127, 127, 127, .8)" y="9" dy="0.71em" transform="translate(-5,5) rotate(-45)" style="text-anchor: end;">Wed 23</text>
                                </g>
                            </g>
                            <g transform="translate(10,10)" fill="none" font-size="10" font-family="sans-serif" text-anchor="start">
                                <g class="tick" opacity="1" transform="translate(0,33.48850574712644)">
                                    <line stroke="currentColor" x2="460" stroke-opacity="0.5" stroke-dasharray="2,2"/>
                                    <text fill="rgba(127, 127, 127, .8)" x="0" dy="-4">2,000</text>
                                </g>
                                <g class="tick" opacity="1" transform="translate(0,90.95977011494254)">
                                    <line stroke="currentColor" x2="460" stroke-opacity="0.5" stroke-dasharray="2,2"/>
                                    <text fill="rgba(127, 127, 127, .8)" x="0" dy="-4">1,980</text>
                                </g>
                                <g class="tick" opacity="1" transform="translate(0,148.4310344827586)">
                                    <line stroke="currentColor" x2="460" stroke-opacity="0.5" stroke-dasharray="2,2"/>
                                    <text fill="rgba(127, 127, 127, .8)" x="0" dy="-4">1,960</text>
                                </g>
                                <g class="tick" opacity="1" transform="translate(0,205.90229885057468)">
                                    <line stroke="currentColor" x2="460" stroke-opacity="0.5" stroke-dasharray="2,2"/>
                                    <text fill="rgba(127, 127, 127, .8)" x="0" dy="-4">1,940</text>
                                </g>
                            </g>
                            <path transform="translate(10,10)" d="M10,260L44.615,234.138L79.231,208.276L113.846,193.908L148.462,159.425L183.077,136.437L217.692,127.816L252.308,110.575L286.923,84.713L321.538,64.598L356.154,38.736L390.769,30.115L425.385,10L460,10" fill="transparent" stroke="#87ceeb" stroke-width="2"/>
                            <path transform="translate(10,10)" d="M10,260L44.615,260L79.231,260L113.846,260L148.462,260L183.077,260L217.692,260L252.308,260L286.923,260L321.538,260L356.154,260L390.769,260L425.385,260L460,260L460,10L425.385,10L390.769,30.115L356.154,38.736L321.538,64.598L286.923,84.713L252.308,110.575L217.692,127.816L183.077,136.437L148.462,159.425L113.846,193.908L79.231,208.276L44.615,234.138L10,260Z" fill="rgba(88, 166, 255, .1)"/>
                            <g>
                                <circle transform="translate(10,10)" cx="10" cy="260" r="2" fill="#106cbc"/>
                                <circle transform="translate(10,10)" cx="44.61538461538462" cy="234.13793103448276" r="2" fill="#106cbc"/>
                                <circle transform="translate(10,10)" cx="79.23076923076924" cy="208.27586206896552" r="2" fill="#106cbc"/>
                                <circle transform="translate(10,10)" cx="113.84615384615385" cy="193.90804597701148" r="2" fill="#106cbc"/>
                                <circle transform="translate(10,10)" cx="148.46153846153848" cy="159.42528735632183" r="2" fill="#106cbc"/>
                                <circle transform="translate(10,10)" cx="183.0769230769231" cy="136.4367816091954" r="2" fill="#106cbc"/>
                                <circle transform="translate(10,10)" cx="217.6923076923077" cy="127.81609195402298" r="2" fill="#106cbc"/>
                                <circle transform="translate(10,10)" cx="252.3076923076923" cy="110.57471264367815" r="2" fill="#106cbc"/>
                                <circle transform="translate(10,10)" cx="286.92307692307696" cy="84.71264367816092" r="2" fill="#106cbc"/>
                                <circle transform="translate(10,10)" cx="321.53846153846155" cy="64.59770114942528" r="2" fill="#106cbc"/>
                                <circle transform="translate(10,10)" cx="356.1538461538462" cy="38.73563218390804" r="2" fill="#106cbc"/>
                                <circle transform="translate(10,10)" cx="390.7692307692308" cy="30.114942528735636" r="2" fill="#106cbc"/>
                                <circle transform="translate(10,10)" cx="425.3846153846154" cy="10" r="2" fill="#106cbc"/>
                            </g>
                            <g fill="currentColor" text-anchor="middle" font-family="sans-serif" font-size="10" stroke="rgba(88, 166, 255, .05)" stroke-linejoin="round" stroke-width="4" paint-order="stroke fill">
                                <text transform="translate(10,6)" x="10" y="260" fill="rgba(127, 127, 127, .8)">1.92k</text>
                                <text transform="translate(10,6)" x="44.61538461538462" y="234.13793103448276" fill="rgba(127, 127, 127, .8)">1.93k</text>
                                <text transform="translate(10,6)" x="79.23076923076924" y="208.27586206896552" fill="rgba(127, 127, 127, .8)">1.94k</text>
                                <text transform="translate(10,6)" x="113.84615384615385" y="193.90804597701148" fill="rgba(127, 127, 127, .8)">1.94k</text>
                                <text transform="translate(10,6)" x="148.46153846153848" y="159.42528735632183" fill="rgba(127, 127, 127, .8)">1.96k</text>
                                <text transform="translate(10,6)" x="183.0769230769231" y="136.4367816091954" fill="rgba(127, 127, 127, .8)">1.96k</text>
                                <text transform="translate(10,6)" x="217.6923076923077" y="127.81609195402298" fill="rgba(127, 127, 127, .8)">1.97k</text>
                                <text transform="translate(10,6)" x="252.3076923076923" y="110.57471264367815" fill="rgba(127, 127, 127, .8)">1.97k</text>
                                <text transform="translate(10,6)" x="286.92307692307696" y="84.71264367816092" fill="rgba(127, 127, 127, .8)">1.98k</text>
                                <text transform="translate(10,6)" x="321.53846153846155" y="64.59770114942528" fill="rgba(127, 127, 127, .8)">1.99k</text>
                                <text transform="translate(10,6)" x="356.1538461538462" y="38.73563218390804" fill="rgba(127, 127, 127, .8)">2k</text>
                                <text transform="translate(10,6)" x="390.7692307692308" y="30.114942528735636" fill="rgba(127, 127, 127, .8)">2k</text>
                                <text transform="translate(10,6)" x="425.3846153846154" y="10" fill="rgba(127, 127, 127, .8)">2.01k</text>
                            </g>
                        </svg>
                    </section>
                    <section class="column chart">
                        <h3>New stargazers per day</h3>
                        <svg xmlns="http://www.w3.org/2000/svg" width="480" height="315">
                            <g transform="translate(10,270)" fill="none" font-size="10" font-family="sans-serif" text-anchor="middle">
                                <path class="domain" stroke="rgba(127, 127, 127, .8)" d="M10.5,0.5H460.5"/>
                                <g class="tick" opacity="1" transform="translate(37.90384615384615,0)">
                                    <line stroke="currentColor" y2="6" stroke-opacity="0.5"/>
                                    <text fill="rgba(127, 127, 127, .8)" y="9" dy="0.71em" transform="translate(-5,5) rotate(-45)" style="text-anchor: end;">Fri 11</text>
                                </g>
                                <g class="tick" opacity="1" transform="translate(72.51923076923077,0)">
                                    <line stroke="currentColor" y2="6" stroke-opacity="0.5"/>
                                    <text fill="rgba(127, 127, 127, .8)" y="9" dy="0.71em" transform="translate(-5,5) rotate(-45)" style="text-anchor: end;">Sat 12</text>
                                </g>
                                <g class="tick" opacity="1" transform="translate(107.13461538461537,0)">
                                    <line stroke="currentColor" y2="6" stroke-opacity="0.5"/>
                                    <text fill="rgba(127, 127, 127, .8)" y="9" dy="0.71em" transform="translate(-5,5) rotate(-45)" style="text-anchor: end;">Sep 13</text>
                                </g>
                                <g class="tick" opacity="1" transform="translate(141.75000000000003,0)">
                                    <line stroke="currentColor" y2="6" stroke-opacity="0.5"/>
                                    <text fill="rgba(127, 127, 127, .8)" y="9" dy="0.71em" transform="translate(-5,5) rotate(-45)" style="text-anchor: end;">Mon 14</text>
                                </g>
                                <g class="tick" opacity="1" transform="translate(176.36538461538464,0)">
                                    <line stroke="currentColor" y2="6" stroke-opacity="0.5"/>
                                    <text fill="rgba(127, 127, 127, .8)" y="9" dy="0.71em" transform="translate(-5,5) rotate(-45)" style="text-anchor: end;">Tue 15</text>
                                </g>
                                <g class="tick" opacity="1" transform="translate(210.98076923076925,0)">
                                    <line stroke="currentColor" y2="6" stroke-opacity="0.5"/>
                                    <text fill="rgba(127, 127, 127, .8)" y="9" dy="0.71em" transform="translate(-5,5) rotate(-45)" style="text-anchor: end;">Wed 16</text>
                                </g>
                                <g class="tick" opacity="1" transform="translate(245.59615384615387,0)">
                                    <line stroke="currentColor" y2="6" stroke-opacity="0.5"/>
                                    <text fill="rgba(127, 127, 127, .8)" y="9" dy="0.71em" transform="translate(-5,5) rotate(-45)" style="text-anchor: end;">Thu 17</text>
                                </g>
                                <g class="tick" opacity="1" transform="translate(280.21153846153845,0)">
                                    <line stroke="currentColor" y2="6" stroke-opacity="0.5"/>
                                    <text fill="rgba(127, 127, 127, .8)" y="9" dy="0.71em" transform="translate(-5,5) rotate(-45)" style="text-anchor: end;">Fri 18</text>
                                </g>
                                <g class="tick" opacity="1" transform="translate(314.8269230769231,0)">
                                    <line stroke="currentColor" y2="6" stroke-opacity="0.5"/>
                                    <text fill="rgba(127, 127, 127, .8)" y="9" dy="0.71em" transform="translate(-5,5) rotate(-45)" style="text-anchor: end;">Sat 19</text>
                                </g>
                                <g class="tick" opacity="1" transform="translate(349.4423076923077,0)">
                                    <line stroke="currentColor" y2="6" stroke-opacity="0.5"/>
                                    <text fill="rgba(127, 127, 127, .8)" y="9" dy="0.71em" transform="translate(-5,5) rotate(-45)" style="text-anchor: end;">Sep 20</text>
                                </g>
                                <g class="tick" opacity="1" transform="translate(384.0576923076923,0)">
                                    <line stroke="currentColor" y2="6" stroke-opacity="0.5"/>
                                    <text fill="rgba(127, 127, 127, .8)" y="9" dy="0.71em" transform="translate(-5,5) rotate(-45)" style="text-anchor: end;">Mon 21</text>
                                </g>
                                <g class="tick" opacity="1" transform="translate(418.6730769230769,0)">
                                    <line stroke="currentColor" y2="6" stroke-opacity="0.5"/>
                                    <text fill="rgba(127, 127, 127, .8)" y="9" dy="0.71em" transform="translate(-5,5) rotate(-45)" style="text-anchor: end;">Tue 22</text>
                                </g>
                                <g class="tick" opacity="1" transform="translate(453.2884615384615,0)">
                                    <line stroke="currentColor" y2="6" stroke-opacity="0.5"/>
                                    <text fill="rgba(127, 127, 127, .8)" y="9" dy="0.71em" transform="translate(-5,5) rotate(-45)" style="text-anchor: end;">Wed 23</text>
                                </g>
                            </g>
                            <g transform="translate(10,10)" fill="none" font-size="10" font-family="sans-serif" text-anchor="start">
                                <g class="tick" opacity="1" transform="translate(0,43.10869565217392)">
                                    <line stroke="currentColor" x2="460" stroke-opacity="0.5" stroke-dasharray="2,2"/>
                                    <text fill="rgba(127, 127, 127, .8)" x="0" dy="-4">20</text>
                                </g>
                                <g class="tick" opacity="1" transform="translate(0,97.45652173913044)">
                                    <line stroke="currentColor" x2="460" stroke-opacity="0.5" stroke-dasharray="2,2"/>
                                    <text fill="rgba(127, 127, 127, .8)" x="0" dy="-4">15</text>
                                </g>
                                <g class="tick" opacity="1" transform="translate(0,151.804347826087)">
                                    <line stroke="currentColor" x2="460" stroke-opacity="0.5" stroke-dasharray="2,2"/>
                                    <text fill="rgba(127, 127, 127, .8)" x="0" dy="-4">10</text>
                                </g>
                                <g class="tick" opacity="1" transform="translate(0,206.15217391304347)">
                                    <line stroke="currentColor" x2="460" stroke-opacity="0.5" stroke-dasharray="2,2"/>
                                    <text fill="rgba(127, 127, 127, .8)" x="0" dy="-4">5</text>
                                </g>
                                <g class="tick" opacity="1" transform="translate(0,260.5)">
                                    <line stroke="currentColor" x2="460" stroke-opacity="0.5" stroke-dasharray="2,2"/>
                                    <text fill="rgba(127, 127, 127, .8)" x="0" dy="-4">0</text>
                                </g>
                            </g>
                            <path transform="translate(10,10)" d="M10,10L44.615,162.174L79.231,162.174L113.846,205.652L148.462,129.565L183.077,173.043L217.692,227.391L252.308,194.783L286.923,162.174L321.538,183.913L356.154,162.174L390.769,227.391L425.385,183.913L460,260" fill="transparent" stroke="#87ceeb" stroke-width="2"/>
                            <path transform="translate(10,10)" d="M10,260L44.615,260L79.231,260L113.846,260L148.462,260L183.077,260L217.692,260L252.308,260L286.923,260L321.538,260L356.154,260L390.769,260L425.385,260L460,260L460,260L425.385,183.913L390.769,227.391L356.154,162.174L321.538,183.913L286.923,162.174L252.308,194.783L217.692,227.391L183.077,173.043L148.462,129.565L113.846,205.652L79.231,162.174L44.615,162.174L10,10Z" fill="rgba(88, 166, 255, .1)"/>
                            <g>
                                <circle transform="translate(10,10)" cx="10" cy="10" r="2" fill="#106cbc"/>
                                <circle transform="translate(10,10)" cx="44.61538461538462" cy="162.17391304347828" r="2" fill="#106cbc"/>
                                <circle transform="translate(10,10)" cx="79.23076923076924" cy="162.17391304347828" r="2" fill="#106cbc"/>
                                <circle transform="translate(10,10)" cx="113.84615384615385" cy="205.65217391304347" r="2" fill="#106cbc"/>
                                <circle transform="translate(10,10)" cx="148.46153846153848" cy="129.56521739130434" r="2" fill="#106cbc"/>
                                <circle transform="translate(10,10)" cx="183.0769230769231" cy="173.04347826086956" r="2" fill="#106cbc"/>
                                <circle transform="translate(10,10)" cx="217.6923076923077" cy="227.3913043478261" r="2" fill="#106cbc"/>
                                <circle transform="translate(10,10)" cx="252.3076923076923" cy="194.78260869565216" r="2" fill="#106cbc"/>
                                <circle transform="translate(10,10)" cx="286.92307692307696" cy="162.17391304347828" r="2" fill="#106cbc"/>
                                <circle transform="translate(10,10)" cx="321.53846153846155" cy="183.91304347826087" r="2" fill="#106cbc"/>
                                <circle transform="translate(10,10)" cx="356.1538461538462" cy="162.17391304347828" r="2" fill="#106cbc"/>
                                <circle transform="translate(10,10)" cx="390.7692307692308" cy="227.3913043478261" r="2" fill="#106cbc"/>
                                <circle transform="translate(10,10)" cx="425.3846153846154" cy="183.91304347826087" r="2" fill="#106cbc"/>
                            </g>
                            <g fill="currentColor" text-anchor="middle" font-family="sans-serif" font-size="10" stroke="rgba(88, 166, 255, .05)" stroke-linejoin="round" stroke-width="4" paint-order="stroke fill">
                                <text transform="translate(10,6)" x="10" y="10" fill="rgba(127, 127, 127, .8)">+23</text>
                                <text transform="translate(10,6)" x="44.61538461538462" y="162.17391304347828" fill="rgba(127, 127, 127, .8)">+9</text>
                                <text transform="translate(10,6)" x="79.23076923076924" y="162.17391304347828" fill="rgba(127, 127, 127, .8)">+9</text>
                                <text transform="translate(10,6)" x="113.84615384615385" y="205.65217391304347" fill="rgba(127, 127, 127, .8)">+5</text>
                                <text transform="translate(10,6)" x="148.46153846153848" y="129.56521739130434" fill="rgba(127, 127, 127, .8)">+12</text>
                                <text transform="translate(10,6)" x="183.0769230769231" y="173.04347826086956" fill="rgba(127, 127, 127, .8)">+8</text>
                                <text transform="translate(10,6)" x="217.6923076923077" y="227.3913043478261" fill="rgba(127, 127, 127, .8)">+3</text>
                                <text transform="translate(10,6)" x="252.3076923076923" y="194.78260869565216" fill="rgba(127, 127, 127, .8)">+6</text>
                                <text transform="translate(10,6)" x="286.92307692307696" y="162.17391304347828" fill="rgba(127, 127, 127, .8)">+9</text>
                                <text transform="translate(10,6)" x="321.53846153846155" y="183.91304347826087" fill="rgba(127, 127, 127, .8)">+7</text>
                                <text transform="translate(10,6)" x="356.1538461538462" y="162.17391304347828" fill="rgba(127, 127, 127, .8)">+9</text>
                                <text transform="translate(10,6)" x="390.7692307692308" y="227.3913043478261" fill="rgba(127, 127, 127, .8)">+3</text>
                                <text transform="translate(10,6)" x="425.3846153846154" y="183.91304347826087" fill="rgba(127, 127, 127, .8)">+7</text>
                            </g>
                        </svg>
                    </section>
                </div>
            </section>
        </div>
        <div xmlns="http://www.w3.org/1999/xhtml" id="metrics-end"></div>
    </foreignObject>
</svg>