<svg xmlns="http://www.w3.org/2000/svg" width="480" height="814" class="">
    <defs>
        <style/>
    </defs>
    <style>@keyframes animation-gauge{0%{stroke-dasharray:0 329}}@keyframes animation-rainbow{0%,to{color:#7f00ff;fill:#7f00ff}14%{color:#a933ff;fill:#a933ff}29%{color:#007fff;fill:#007fff}43%{color:#00ff7f;fill:#00ff7f}57%{color:#ff0;fill:#ff0}71%{color:#ff7f00;fill:#ff7f00}86%{color:red;fill:red}}svg{font-family:-apple-system,BlinkMacSystemFont,Segoe UI,Helvetica,Arial,sans-serif,Apple Color Emoji,Segoe UI Emoji;color:#777}h2,h3{margin:8px 0 2px;padding:0;color:#0366d6;font-weight:400}h2 svg,h3 svg{fill:currentColor}h2{font-size:16px}h3,svg{font-size:14px}section&gt;.field{margin-left:5px;margin-right:5px}.field{display:flex;align-items:center;margin-bottom:2px;white-space:nowrap}.field svg{margin:0 8px;fill:#959da5;flex-shrink:0}.row{display:flex;flex-wrap:wrap}.row section{flex:1 1 0}.column{display:flex;flex-direction:column;align-items:center}.margin-bottom{margin-bottom:16px}.chart{padding:0 8px}:root{--color-calendar-graph-day-bg:#ebedf0;--color-calendar-graph-day-border:rgba(27,31,35,0.06);--color-calendar-graph-day-L1-bg:#9be9a8;--color-calendar-graph-day-L2-bg:#40c463;--color-calendar-graph-day-L3-bg:#30a14e;--color-calendar-graph-day-L4-bg:#216e39;--color-calendar-halloween-graph-day-L1-bg:#ffee4a;--color-calendar-halloween-graph-day-L2-bg:#ffc501;--color-calendar-halloween-graph-day-L3-bg:#fe9600;--color-calendar-halloween-graph-day-L4-bg:#03001c;--color-calendar-winter-graph-day-L1-bg:#0a3069;--color-calendar-winter-graph-day-L2-bg:#0969da;--color-calendar-winter-graph-day-L3-bg:#54aeff;--color-calendar-winter-graph-day-L4-bg:#b6e3ff;--color-calendar-graph-day-L4-border:rgba(27,31,35,0.06);--color-calendar-graph-day-L3-border:rgba(27,31,35,0.06);--color-calendar-graph-day-L2-border:rgba(27,31,35,0.06);--color-calendar-graph-day-L1-border:rgba(27,31,35,0.06)}#metrics-end{width:100%}</style>
    <style/>
    <foreignObject x="0" y="0" width="100%" height="100%">
        <div xmlns="http://www.w3.org/1999/xhtml" xmlns:xlink="http://www.w3.org/1999/xlink" class="items-wrapper">
            <section class="stargazers">
                <h2 class="field">
                    <svg xmlns="http://www.w3.org/2000/svg" viewBox="0 0 16 16" width="16" height="16">
                        <path fill-rule="evenodd" d="M8 .25a.75.75 0 01.673.418l1.882 3.815 4.21.612a.75.75 0 01.416 1.279l-3.046 2.97.719 4.192a.75.75 0 01-1.088.791L8 12.347l-3.766 1.98a.75.75 0 01-1.088-.79l.72-4.194L.818 6.374a.75.75 0 01.416-1.28l4.21-.611L7.327.668A.75.75 0 018 .25zm0 2.445L6.615 5.5a.75.75 0 01-.564.41l-3.097.45 2.24 2.184a.75.75 0 01.216.664l-.528 3.084 2.769-1.456a.75.75 0 01.698 0l2.77 1.456-.53-3.084a.75.75 0 01.216-.664l2.24-2.183-3.096-.45a.75.75 0 01-.564-.41L8 2.694v.001z"/>
                    </svg>
                    Stargazers
                </h2>
                <div class="row margin-bottom">
                    <section class="column chart">
                        <h3>Total stargazers</h3>
                        <svg xmlns="http://www.w3.org/2000/svg" width="480" height="315">
                            <g transform="translate(10,270)" fill="none" font-size="10" font-family="sans-serif" text-anchor="middle">
                                <path class="domain" stroke="rgba(127, 127, 127, .8)" d="M10.5,0.5H460.5"/>
                                <g class="tick" opacity="1" transform="translate(37.90384615384615,0)">
                                    <line stroke="currentColor" y2="6" stroke-opacity="0.5"/>
                                    <text fill="rgba(127, 127, 127, .8)" y="9" dy="0.71em" transform="translate(-5,5) rotate(-45)" style="text-anchor: end;">Aug 23</text>
                                </g>
                                <g class="tick" opacity="1" transform="translate(72.51923076923077,0)">
                                    <line stroke="currentColor" y2="6" stroke-opacity="0.5"/>
                                    <text fill="rgba(127, 127, 127, .8)" y="9" dy="0.71em" transform="translate(-5,5) rotate(-45)" style="text-anchor: end;">Mon 24</text>
                                </g>
                                <g class="tick" opacity="1" transform="translate(107.13461538461537,0)">
                                    <line stroke="currentColor" y2="6" stroke-opacity="0.5"/>
                                    <text fill="rgba(127, 127, 127, .8)" y="9" dy="0.71em" transform="translate(-5,5) rotate(-45)" style="text-anchor: end;">Tue 25</text>
                                </g>
                                <g class="tick" opacity="1" transform="translate(141.75000000000003,0)">
                                    <line stroke="currentColor" y2="6" stroke-opacity="0.5"/>
                                    <text fill="rgba(127, 127, 127, .8)" y="9" dy="0.71em" transform="translate(-5,5) rotate(-45)" style="text-anchor: end;">Wed 26</text>
                                </g>
                                <g class="tick" opacity="1" transform="translate(176.36538461538464,0)">
                                    <line stroke="currentColor" y2="6" stroke-opacity="0.5"/>
                                    <text fill="rgba(127, 127, 127, .8)" y="9" dy="0.71em" transform="translate(-5,5) rotate(-45)" style="text-anchor: end;">Thu 27</text>
                                </g>
                                <g class="tick" opacity="1" transform="translate(210.98076923076925,0)">
                                    <line stroke="currentColor" y2="6" stroke-opacity="0.5"/>
                                    <text fill="rgba(127, 127, 127, .8)" y="9" dy="0.71em" transform="translate(-5,5) rotate(-45)" style="text-anchor: end;">Fri 28</text>
                                </g>
                                <g class="tick" opacity="1" transform="translate(245.59615384615387,0)">
                                    <line stroke="currentColor" y2="6" stroke-opacity="0.5"/>
                                    <text fill="rgba(127, 127, 127, .8)" y="9" dy="0.71em" transform="translate(-5,5) rotate(-45)" style="text-anchor: end;">Sat 29</text>
                                </g>
                                <g class="tick" opacity="1" transform="translate(280.21153846153845,0)">
                                    <line stroke="currentColor" y2="6" stroke-opacity="0.5"/>
                                    <text fill="rgba(127, 127, 127, .8)" y="9" dy="0.71em" transform="translate(-5,5) rotate(-45)" style="text-anchor: end;">Aug 30</text>
                                </g>
                                <g class="tick" opacity="1" transform="translate(314.8269230769231,0)">
                                    <line stroke="currentColor" y2="6" stroke-opacity="0.5"/>
                                    <text fill="rgba(127, 127, 127, .8)" y="9" dy="0.71em" transform="translate(-5,5) rotate(-45)" style="text-anchor: end;">Mon 31</text>
                                </g>
                                <g class="tick" opacity="1" transform="translate(349.4423076923077,0)">
                                    <line stroke="currentColor" y2="6" stroke-opacity="0.5"/>
                                    <text fill="rgba(127, 127, 127, .8)" y="9" dy="0.71em" transform="translate(-5,5) rotate(-45)" style="text-anchor: end;">September</text>
                                </g>
                                <g class="tick" opacity="1" transform="translate(384.0576923076923,0)">
                                    <line stroke="currentColor" y2="6" stroke-opacity="0.5"/>
                                    <text fill="rgba(127, 127, 127, .8)" y="9" dy="0.71em" transform="translate(-5,5) rotate(-45)" style="text-anchor: end;">Wed 02</text>
                                </g>
                                <g class="tick" opacity="1" transform="translate(418.6730769230769,0)">
                                    <line stroke="currentColor" y2="6" stroke-opacity="0.5"/>
                                    <text fill="rgba(127, 127, 127, .8)" y="9" dy="0.71em" transform="translate(-5,5) rotate(-45)" style="text-anchor: end;">Thu 03</text>
                                </g>
                                <g class="tick" opacity="1" transform="translate(453.2884615384615,0)">
                                    <line stroke="currentColor" y2="6" stroke-opacity="0.5"/>
                                    <text fill="rgba(127, 127, 127, .8)" y="9" dy="0.71em" transform="translate(-5,5) rotate(-45)" style="text-anchor: end;">Fri 04</text>
                                </g>
                            </g>
                            <g transform="translate(10,10)" fill="none" font-size="10" font-family="sans-serif" text-anchor="start">
                                <g class="tick" opacity="1" transform="translate(0,25.050264550264565)">
                                    <line stroke="currentColor" x2="460" stroke-opacity="0.5" stroke-dasharray="2,2"/>
                                    <text fill="rgba(127, 127, 127, .8)" x="0" dy="-4">1,840</text>
                                </g>
                                <g class="tick" opacity="1" transform="translate(0,51.50529100529102)">
                                    <line stroke="currentColor" x2="460" stroke-opacity="0.5" stroke-dasharray="2,2"/>
                                    <text fill="rgba(127, 127, 127, .8)" x="0" dy="-4">1,820</text>
                                </g>
                                <g class="tick" opacity="1" transform="translate(0,77.96031746031747)">
                                    <line stroke="currentColor" x2="460" stroke-opacity="0.5" stroke-dasharray="2,2"/>
                                    <text fill="rgba(127, 127, 127, .8)" x="0" dy="-4">1,800</text>
                                </g>
                                <g class="tick" opacity="1" transform="translate(0,104.41534391534393)">
                                    <line stroke="currentColor" x2="460" stroke-opacity="0.5" stroke-dasharray="2,2"/>
                                    <text fill="rgba(127, 127, 127, .8)" x="0" dy="-4">1,780</text>
                                </g>
                                <g class="tick" opacity="1" transform="translate(0,130.87037037037038)">
                                    <line stroke="currentColor" x2="460" stroke-opacity="0.5" stroke-dasharray="2,2"/>
                                    <text fill="rgba(127, 127, 127, .8)" x="0" dy="-4">1,760</text>
                                </g>
                                <g class="tick" opacity="1" transform="translate(0,157.32539682539684)">
                                    <line stroke="currentColor" x2="460" stroke-opacity="0.5" stroke-dasharray="2,2"/>
                                    <text fill="rgba(127, 127, 127, .8)" x="0" dy="-4">1,740</text>
                                </g>
                                <g class="tick" opacity="1" transform="translate(0,183.7804232804233)">
                                    <line stroke="currentColor" x2="460" stroke-opacity="0.5" stroke-dasharray="2,2"/>
                                    <text fill="rgba(127, 127, 127, .8)" x="0" dy="-4">1,720</text>
                                </g>
                                <g class="tick" opacity="1" transform="translate(0,210.23544973544972)">
                                    <line stroke="currentColor" x2="460" stroke-opacity="0.5" stroke-dasharray="2,2"/>
                                    <text fill="rgba(127, 127, 127, .8)" x="0" dy="-4">1,700</text>
                                </g>
                                <g class="tick" opacity="1" transform="translate(0,236.6904761904762)">
                                    <line stroke="currentColor" x2="460" stroke-opacity="0.5" stroke-dasharray="2,2"/>
                                    <text fill="rgba(127, 127, 127, .8)" x="0" dy="-4">1,680</text>
                                </g>
                            </g>
                            <path transform="translate(10,10)" d="M10,260L44.615,252.063L79.231,245.45L113.846,225.608L148.462,199.153L183.077,174.021L217.692,154.18L252.308,142.275L286.923,126.402L321.538,103.915L356.154,84.074L390.769,57.619L425.385,32.487L460,10" fill="transparent" stroke="#87ceeb" stroke-width="2"/>
                            <path transform="translate(10,10)" d="M10,260L44.615,260L79.231,260L113.846,260L148.462,260L183.077,260L217.692,260L252.308,260L286.923,260L321.538,260L356.154,260L390.769,260L425.385,260L460,260L460,10L425.385,32.487L390.769,57.619L356.154,84.074L321.538,103.915L286.923,126.402L252.308,142.275L217.692,154.18L183.077,174.021L148.462,199.153L113.846,225.608L79.231,245.45L44.615,252.063L10,260Z" fill="rgba(88, 166, 255, .1)"/>
                            <g>
                                <circle transform="translate(10,10)" cx="10" cy="260" r="2" fill="#106cbc"/>
                                <circle transform="translate(10,10)" cx="44.61538461538462" cy="252.06349206349208" r="2" fill="#106cbc"/>
                                <circle transform="translate(10,10)" cx="79.23076923076924" cy="245.44973544973547" r="2" fill="#106cbc"/>
                                <circle transform="translate(10,10)" cx="113.84615384615385" cy="225.6084656084656" r="2" fill="#106cbc"/>
                                <circle transform="translate(10,10)" cx="148.46153846153848" cy="199.15343915343917" r="2" fill="#106cbc"/>
                                <circle transform="translate(10,10)" cx="183.0769230769231" cy="174.02116402116403" r="2" fill="#106cbc"/>
                                <circle transform="translate(10,10)" cx="217.6923076923077" cy="154.17989417989418" r="2" fill="#106cbc"/>
                                <circle transform="translate(10,10)" cx="252.3076923076923" cy="142.27513227513228" r="2" fill="#106cbc"/>
                                <circle transform="translate(10,10)" cx="286.92307692307696" cy="126.40211640211639" r="2" fill="#106cbc"/>
                                <circle transform="translate(10,10)" cx="321.53846153846155" cy="103.91534391534393" r="2" fill="#106cbc"/>
                                <circle transform="translate(10,10)" cx="356.1538461538462" cy="84.07407407407408" r="2" fill="#106cbc"/>
                                <circle transform="translate(10,10)" cx="390.7692307692308" cy="57.61904761904761" r="2" fill="#106cbc"/>
                                <circle transform="translate(10,10)" cx="425.3846153846154" cy="32.4867724867725" r="2" fill="#106cbc"/>
                            </g>
                            <g fill="currentColor" text-anchor="middle" font-family="sans-serif" font-size="10" stroke="rgba(88, 166, 255, .05)" stroke-linejoin="round" stroke-width="4" paint-order="stroke fill">
                                <text transform="translate(10,6)" x="10" y="260" fill="rgba(127, 127, 127, .8)">1.66k</text>
                                <text transform="translate(10,6)" x="44.61538461538462" y="252.06349206349208" fill="rgba(127, 127, 127, .8)">1.67k</text>
                                <text transform="translate(10,6)" x="79.23076923076924" y="245.44973544973547" fill="rgba(127, 127, 127, .8)">1.67k</text>
                                <text transform="translate(10,6)" x="113.84615384615385" y="225.6084656084656" fill="rgba(127, 127, 127, .8)">1.69k</text>
                                <text transform="translate(10,6)" x="148.46153846153848" y="199.15343915343917" fill="rgba(127, 127, 127, .8)">1.71k</text>
                                <text transform="translate(10,6)" x="183.0769230769231" y="174.02116402116403" fill="rgba(127, 127, 127, .8)">1.73k</text>
                                <text transform="translate(10,6)" x="217.6923076923077" y="154.17989417989418" fill="rgba(127, 127, 127, .8)">1.74k</text>
                                <text transform="translate(10,6)" x="252.3076923076923" y="142.27513227513228" fill="rgba(127, 127, 127, .8)">1.75k</text>
                                <text transform="translate(10,6)" x="286.92307692307696" y="126.40211640211639" fill="rgba(127, 127, 127, .8)">1.76k</text>
                                <text transform="translate(10,6)" x="321.53846153846155" y="103.91534391534393" fill="rgba(127, 127, 127, .8)">1.78k</text>
                                <text transform="translate(10,6)" x="356.1538461538462" y="84.07407407407408" fill="rgba(127, 127, 127, .8)">1.79k</text>
                                <text transform="translate(10,6)" x="390.7692307692308" y="57.61904761904761" fill="rgba(127, 127, 127, .8)">1.81k</text>
                                <text transform="translate(10,6)" x="425.3846153846154" y="32.4867724867725" fill="rgba(127, 127, 127, .8)">1.83k</text>
                            </g>
                        </svg>
                    </section>
                    <section class="column chart">
                        <h3>New stargazers per day</h3>
                        <svg xmlns="http://www.w3.org/2000/svg" width="480" height="315">
                            <g transform="translate(10,270)" fill="none" font-size="10" font-family="sans-serif" text-anchor="middle">
                                <path class="domain" stroke="rgba(127, 127, 127, .8)" d="M10.5,0.5H460.5"/>
                                <g class="tick" opacity="1" transform="translate(37.90384615384615,0)">
                                    <line stroke="currentColor" y2="6" stroke-opacity="0.5"/>
                                    <text fill="rgba(127, 127, 127, .8)" y="9" dy="0.71em" transform="translate(-5,5) rotate(-45)" style="text-anchor: end;">Aug 23</text>
                                </g>
                                <g class="tick" opacity="1" transform="translate(72.51923076923077,0)">
                                    <line stroke="currentColor" y2="6" stroke-opacity="0.5"/>
                                    <text fill="rgba(127, 127, 127, .8)" y="9" dy="0.71em" transform="translate(-5,5) rotate(-45)" style="text-anchor: end;">Mon 24</text>
                                </g>
                                <g class="tick" opacity="1" transform="translate(107.13461538461537,0)">
                                    <line stroke="currentColor" y2="6" stroke-opacity="0.5"/>
                                    <text fill="rgba(127, 127, 127, .8)" y="9" dy="0.71em" transform="translate(-5,5) rotate(-45)" style="text-anchor: end;">Tue 25</text>
                                </g>
                                <g class="tick" opacity="1" transform="translate(141.75000000000003,0)">
                                    <line stroke="currentColor" y2="6" stroke-opacity="0.5"/>
                                    <text fill="rgba(127, 127, 127, .8)" y="9" dy="0.71em" transform="translate(-5,5) rotate(-45)" style="text-anchor: end;">Wed 26</text>
                                </g>
                                <g class="tick" opacity="1" transform="translate(176.36538461538464,0)">
                                    <line stroke="currentColor" y2="6" stroke-opacity="0.5"/>
                                    <text fill="rgba(127, 127, 127, .8)" y="9" dy="0.71em" transform="translate(-5,5) rotate(-45)" style="text-anchor: end;">Thu 27</text>
                                </g>
                                <g class="tick" opacity="1" transform="translate(210.98076923076925,0)">
                                    <line stroke="currentColor" y2="6" stroke-opacity="0.5"/>
                                    <text fill="rgba(127, 127, 127, .8)" y="9" dy="0.71em" transform="translate(-5,5) rotate(-45)" style="text-anchor: end;">Fri 28</text>
                                </g>
                                <g class="tick" opacity="1" transform="translate(245.59615384615387,0)">
                                    <line stroke="currentColor" y2="6" stroke-opacity="0.5"/>
                                    <text fill="rgba(127, 127, 127, .8)" y="9" dy="0.71em" transform="translate(-5,5) rotate(-45)" style="text-anchor: end;">Sat 29</text>
                                </g>
                                <g class="tick" opacity="1" transform="translate(280.21153846153845,0)">
                                    <line stroke="currentColor" y2="6" stroke-opacity="0.5"/>
                                    <text fill="rgba(127, 127, 127, .8)" y="9" dy="0.71em" transform="translate(-5,5) rotate(-45)" style="text-anchor: end;">Aug 30</text>
                                </g>
                                <g class="tick" opacity="1" transform="translate(314.8269230769231,0)">
                                    <line stroke="currentColor" y2="6" stroke-opacity="0.5"/>
                                    <text fill="rgba(127, 127, 127, .8)" y="9" dy="0.71em" transform="translate(-5,5) rotate(-45)" style="text-anchor: end;">Mon 31</text>
                                </g>
                                <g class="tick" opacity="1" transform="translate(349.4423076923077,0)">
                                    <line stroke="currentColor" y2="6" stroke-opacity="0.5"/>
                                    <text fill="rgba(127, 127, 127, .8)" y="9" dy="0.71em" transform="translate(-5,5) rotate(-45)" style="text-anchor: end;">September</text>
                                </g>
                                <g class="tick" opacity="1" transform="translate(384.0576923076923,0)">
                                    <line stroke="currentColor" y2="6" stroke-opacity="0.5"/>
                                    <text fill="rgba(127, 127, 127, .8)" y="9" dy="0.71em" transform="translate(-5,5) rotate(-45)" style="text-anchor: end;">Wed 02</text>
                                </g>
                                <g class="tick" opacity="1" transform="translate(418.6730769230769,0)">
                                    <line stroke="currentColor" y2="6" stroke-opacity="0.5"/>
                                    <text fill="rgba(127, 127, 127, .8)" y="9" dy="0.71em" transform="translate(-5,5) rotate(-45)" style="text-anchor: end;">Thu 03</text>
                                </g>
                                <g class="tick" opacity="1" transform="translate(453.2884615384615,0)">
                                    <line stroke="currentColor" y2="6" stroke-opacity="0.5"/>
                                    <text fill="rgba(127, 127, 127, .8)" y="9" dy="0.71em" transform="translate(-5,5) rotate(-45)" style="text-anchor: end;">Fri 04</text>
                                </g>
                            </g>
                            <g transform="translate(10,10)" fill="none" font-size="10" font-family="sans-serif" text-anchor="start">
                                <g class="tick" opacity="1" transform="translate(0,10.5)">
                                    <line stroke="currentColor" x2="460" stroke-opacity="0.5" stroke-dasharray="2,2"/>
                                    <text fill="rgba(127, 127, 127, .8)" x="0" dy="-4">20</text>
                                </g>
                                <g class="tick" opacity="1" transform="translate(0,73)">
                                    <line stroke="currentColor" x2="460" stroke-opacity="0.5" stroke-dasharray="2,2"/>
                                    <text fill="rgba(127, 127, 127, .8)" x="0" dy="-4">15</text>
                                </g>
                                <g class="tick" opacity="1" transform="translate(0,135.5)">
                                    <line stroke="currentColor" x2="460" stroke-opacity="0.5" stroke-dasharray="2,2"/>
                                    <text fill="rgba(127, 127, 127, .8)" x="0" dy="-4">10</text>
                                </g>
                                <g class="tick" opacity="1" transform="translate(0,198)">
                                    <line stroke="currentColor" x2="460" stroke-opacity="0.5" stroke-dasharray="2,2"/>
                                    <text fill="rgba(127, 127, 127, .8)" x="0" dy="-4">5</text>
                                </g>
                                <g class="tick" opacity="1" transform="translate(0,260.5)">
                                    <line stroke="currentColor" x2="460" stroke-opacity="0.5" stroke-dasharray="2,2"/>
                                    <text fill="rgba(127, 127, 127, .8)" x="0" dy="-4">0</text>
                                </g>
                            </g>
                            <path transform="translate(10,10)" d="M10,147.5L44.615,185L79.231,197.5L113.846,72.5L148.462,10L183.077,22.5L217.692,72.5L252.308,147.5L286.923,110L321.538,47.5L356.154,72.5L390.769,10L425.385,22.5L460,47.5" fill="transparent" stroke="#87ceeb" stroke-width="2"/>
                            <path transform="translate(10,10)" d="M10,260L44.615,260L79.231,260L113.846,260L148.462,260L183.077,260L217.692,260L252.308,260L286.923,260L321.538,260L356.154,260L390.769,260L425.385,260L460,260L460,47.5L425.385,22.5L390.769,10L356.154,72.5L321.538,47.5L286.923,110L252.308,147.5L217.692,72.5L183.077,22.5L148.462,10L113.846,72.5L79.231,197.5L44.615,185L10,147.5Z" fill="rgba(88, 166, 255, .1)"/>
                            <g>
                                <circle transform="translate(10,10)" cx="10" cy="147.5" r="2" fill="#106cbc"/>
                                <circle transform="translate(10,10)" cx="44.61538461538462" cy="185" r="2" fill="#106cbc"/>
                                <circle transform="translate(10,10)" cx="79.23076923076924" cy="197.5" r="2" fill="#106cbc"/>
                                <circle transform="translate(10,10)" cx="113.84615384615385" cy="72.5" r="2" fill="#106cbc"/>
                                <circle transform="translate(10,10)" cx="148.46153846153848" cy="10" r="2" fill="#106cbc"/>
                                <circle transform="translate(10,10)" cx="183.0769230769231" cy="22.50000000000001" r="2" fill="#106cbc"/>
                                <circle transform="translate(10,10)" cx="217.6923076923077" cy="72.5" r="2" fill="#106cbc"/>
                                <circle transform="translate(10,10)" cx="252.3076923076923" cy="147.5" r="2" fill="#106cbc"/>
                                <circle transform="translate(10,10)" cx="286.92307692307696" cy="110" r="2" fill="#106cbc"/>
                                <circle transform="translate(10,10)" cx="321.53846153846155" cy="47.50000000000001" r="2" fill="#106cbc"/>
                                <circle transform="translate(10,10)" cx="356.1538461538462" cy="72.5" r="2" fill="#106cbc"/>
                                <circle transform="translate(10,10)" cx="390.7692307692308" cy="10" r="2" fill="#106cbc"/>
                                <circle transform="translate(10,10)" cx="425.3846153846154" cy="22.50000000000001" r="2" fill="#106cbc"/>
                            </g>
                            <g fill="currentColor" text-anchor="middle" font-family="sans-serif" font-size="10" stroke="rgba(88, 166, 255, .05)" stroke-linejoin="round" stroke-width="4" paint-order="stroke fill">
                                <text transform="translate(10,6)" x="10" y="147.5" fill="rgba(127, 127, 127, .8)">+9</text>
                                <text transform="translate(10,6)" x="44.61538461538462" y="185" fill="rgba(127, 127, 127, .8)">+6</text>
                                <text transform="translate(10,6)" x="79.23076923076924" y="197.5" fill="rgba(127, 127, 127, .8)">+5</text>
                                <text transform="translate(10,6)" x="113.84615384615385" y="72.5" fill="rgba(127, 127, 127, .8)">+15</text>
                                <text transform="translate(10,6)" x="148.46153846153848" y="10" fill="rgba(127, 127, 127, .8)">+20</text>
                                <text transform="translate(10,6)" x="183.0769230769231" y="22.50000000000001" fill="rgba(127, 127, 127, .8)">+19</text>
                                <text transform="translate(10,6)" x="217.6923076923077" y="72.5" fill="rgba(127, 127, 127, .8)">+15</text>
                                <text transform="translate(10,6)" x="252.3076923076923" y="147.5" fill="rgba(127, 127, 127, .8)">+9</text>
                                <text transform="translate(10,6)" x="286.92307692307696" y="110" fill="rgba(127, 127, 127, .8)">+12</text>
                                <text transform="translate(10,6)" x="321.53846153846155" y="47.50000000000001" fill="rgba(127, 127, 127, .8)">+17</text>
                                <text transform="translate(10,6)" x="356.1538461538462" y="72.5" fill="rgba(127, 127, 127, .8)">+15</text>
                                <text transform="translate(10,6)" x="390.7692307692308" y="10" fill="rgba(127, 127, 127, .8)">+20</text>
                                <text transform="translate(10,6)" x="425.3846153846154" y="22.50000000000001" fill="rgba(127, 127, 127, .8)">+19</text>
                            </g>
                        </svg>
                    </section>
                </div>
            </section>
        </div>
        <div xmlns="http://www.w3.org/1999/xhtml" id="metrics-end"></div>
    </foreignObject>
</svg>